<?xml version="1.0" standalone="no"?>
<!DOCTYPE svg PUBLIC "-//W3C//DTD SVG 20010904//EN"
 "http://www.w3.org/TR/2001/REC-SVG-20010904/DTD/svg10.dtd">
<svg version="1.0" xmlns="http://www.w3.org/2000/svg"
 width="460.000000pt" height="460.000000pt" viewBox="0 0 460.000000 460.000000"
 preserveAspectRatio="xMidYMid meet">
<metadata>
Created by potrace 1.11, written by Peter Selinger 2001-2013
</metadata>
<g transform="translate(0.000000,460.000000) scale(0.100000,-0.100000)"
fill="#000000" stroke="none">
<path d="M894 3852 c-33 -49 -86 -141 -142 -246 -19 -33 -44 -74 -56 -91 -13
-16 -27 -41 -31 -55 -4 -13 -22 -47 -40 -75 -18 -27 -46 -73 -61 -101 -81
-145 -109 -193 -135 -231 -16 -23 -29 -47 -29 -54 0 -7 -6 -20 -13 -28 -26
-32 -87 -139 -87 -153 0 -8 -8 -22 -18 -31 -10 -9 -29 -38 -42 -64 -13 -27
-37 -70 -55 -98 -39 -61 -101 -169 -135 -234 -14 -27 -31 -56 -38 -64 -10 -12
-7 -26 20 -78 18 -36 43 -78 54 -94 12 -17 34 -55 49 -85 15 -30 33 -62 40
-70 7 -8 32 -51 55 -95 23 -44 46 -82 51 -85 4 -3 16 -24 25 -45 9 -22 22 -47
29 -55 7 -8 29 -46 50 -85 20 -38 43 -77 50 -85 7 -8 25 -40 40 -70 15 -30 41
-74 56 -97 16 -23 33 -53 39 -68 5 -14 27 -52 49 -85 22 -32 43 -69 47 -82 4
-13 17 -36 30 -53 12 -16 38 -59 57 -95 19 -36 50 -92 70 -125 20 -33 50 -84
67 -112 l31 -53 458 0 458 0 26 38 c14 20 31 51 39 67 7 17 27 51 45 77 18 26
39 64 48 84 9 21 22 45 29 54 8 8 29 44 48 80 19 36 49 89 66 118 68 111 96
159 130 222 19 36 44 79 56 95 12 17 22 37 24 45 2 8 18 38 36 65 19 28 43 70
56 95 12 25 28 52 35 60 7 8 32 51 55 95 23 43 49 85 56 93 8 7 14 18 14 24 0
11 65 122 87 149 7 8 13 21 13 28 0 7 18 39 40 71 22 32 40 63 40 67 0 5 22
44 50 88 28 44 50 83 50 88 0 4 17 34 39 65 21 31 42 68 46 82 4 14 11 27 14
30 10 7 81 126 81 135 0 4 15 31 34 59 18 28 46 75 61 105 15 30 33 61 41 69
8 7 14 18 14 23 0 5 5 9 10 9 6 0 10 -4 10 -9 0 -6 19 -38 43 -73 23 -35 43
-70 45 -78 2 -8 18 -37 36 -65 19 -27 44 -70 56 -95 13 -25 36 -64 51 -87 16
-23 29 -45 29 -49 0 -4 20 -39 45 -79 24 -39 49 -82 55 -96 6 -13 24 -44 40
-69 54 -83 54 -85 13 -151 -21 -33 -49 -81 -63 -108 -14 -26 -34 -61 -45 -77
-12 -16 -27 -42 -35 -59 -7 -16 -29 -55 -48 -85 -64 -104 -134 -225 -136 -235
-1 -5 -14 -29 -29 -52 -15 -24 -41 -69 -58 -100 -17 -32 -39 -69 -49 -83 -10
-14 -30 -50 -45 -80 -15 -30 -33 -62 -40 -70 -7 -8 -30 -46 -50 -85 -21 -38
-47 -83 -59 -100 -11 -16 -21 -35 -22 -42 -1 -7 -18 -37 -37 -66 -19 -28 -44
-72 -57 -97 -12 -25 -28 -52 -35 -60 -7 -8 -26 -41 -43 -72 l-30 -58 457 0
458 0 30 48 c17 26 42 70 56 98 15 29 32 58 39 65 8 8 22 32 33 54 10 22 38
71 62 110 23 38 43 73 43 77 0 3 18 34 40 67 22 33 40 64 40 69 0 5 18 37 40
71 22 34 52 85 66 114 15 29 38 66 51 84 14 18 26 38 27 45 2 13 9 26 68 117
15 25 28 50 28 57 0 7 6 19 13 26 7 7 32 49 56 92 24 44 51 91 61 105 16 23
58 96 108 186 9 17 27 47 39 67 l22 36 -37 70 c-54 102 -110 200 -148 258 -19
29 -38 63 -43 75 -5 13 -26 49 -45 79 -20 30 -36 58 -36 61 0 8 -60 110 -70
119 -3 3 -11 19 -18 35 -8 17 -24 46 -36 65 -25 39 -93 157 -139 240 -16 30
-43 74 -58 97 -16 23 -29 45 -29 50 0 5 -22 44 -50 88 -27 44 -50 85 -50 91 0
5 -12 26 -26 45 -14 19 -37 57 -51 84 -14 28 -39 71 -56 98 l-30 47 -458 0
-458 0 -12 -22 c-7 -13 -15 -25 -19 -28 -5 -3 -18 -26 -31 -51 -13 -26 -35
-66 -49 -89 -14 -24 -37 -64 -52 -89 -14 -25 -41 -73 -59 -106 -17 -33 -44
-78 -59 -100 -15 -22 -40 -65 -55 -95 -15 -30 -38 -69 -51 -86 -12 -17 -26
-43 -30 -58 -3 -14 -10 -26 -14 -26 -4 0 -15 -15 -24 -32 -23 -44 -113 -203
-175 -306 -18 -31 -49 -86 -68 -122 -20 -36 -42 -72 -49 -81 -8 -8 -14 -20
-14 -25 0 -5 -16 -34 -36 -64 -19 -30 -47 -77 -60 -105 -14 -27 -35 -64 -47
-82 -20 -29 -56 -91 -130 -225 -15 -28 -41 -70 -56 -94 -16 -23 -32 -52 -36
-64 -4 -11 -24 -48 -46 -80 -22 -33 -44 -71 -49 -85 -6 -15 -23 -45 -38 -68
-16 -23 -42 -67 -58 -97 -15 -30 -36 -65 -45 -78 l-17 -23 -17 23 c-34 48 -85
133 -85 142 0 5 -20 39 -45 77 -25 38 -45 72 -45 77 0 4 -18 36 -40 70 -22 33
-40 65 -40 69 0 5 -15 31 -33 59 -18 27 -54 89 -81 137 -26 48 -51 87 -55 87
-14 0 -20 41 -10 64 5 11 23 41 39 66 16 25 34 56 40 69 6 14 31 57 55 96 25
40 45 75 45 78 0 4 15 31 34 60 18 28 51 83 72 120 22 38 54 94 71 125 18 32
37 66 43 77 6 11 23 41 38 66 15 25 44 77 66 115 21 38 49 86 62 106 14 21 40
68 60 105 20 38 42 75 50 83 7 9 20 31 29 50 9 19 29 55 45 80 16 25 36 60 44
78 9 18 24 45 35 60 10 15 33 53 50 85 l31 57 -458 0 -457 -1 -31 -47z"/>
</g>
</svg>
